<svg width="52" height="47" fill="none" xmlns="http://www.w3.org/2000/svg"><path d="M47.8 4.328C45.077 1.551 41.472.034 37.625.034c-3.848 0-7.463 1.529-10.186 4.305l-1.422 1.45-1.445-1.472C21.85 1.54 18.222 0 14.375 0 10.54 0 6.923 1.529 4.211 4.294 1.488 7.071-.01 10.76.001 14.682c0 3.924 1.51 7.6 4.232 10.376l20.703 21.113c.287.292.673.45 1.047.45.375 0 .761-.147 1.048-.439l20.747-21.079C50.5 22.327 52 18.64 52 14.716c.011-3.924-1.477-7.611-4.2-10.388Z" fill="url(#a)"/><mask id="b" style="mask-type:alpha" maskUnits="userSpaceOnUse" x="0" y="0" width="52" height="47"><path d="M47.8 4.328C45.077 1.551 41.472.034 37.625.034c-3.848 0-7.463 1.529-10.186 4.305l-1.422 1.45-1.445-1.472C21.85 1.54 18.222 0 14.375 0 10.54 0 6.923 1.529 4.211 4.294 1.488 7.071-.01 10.76.001 14.682c0 3.924 1.51 7.6 4.232 10.376l20.703 21.113c.287.292.673.45 1.047.45.375 0 .761-.147 1.048-.439l20.747-21.079C50.5 22.327 52 18.64 52 14.716c.011-3.924-1.477-7.611-4.2-10.388Z" fill="#fff"/></mask><g filter="url(#c)" mask="url(#b)"><ellipse cx="21.389" cy="14.537" rx="47.453" ry="18.836" transform="rotate(-30.91 21.39 14.537)" fill="#fff" fill-opacity=".15"/></g><mask id="e" style="mask-type:alpha" maskUnits="userSpaceOnUse" x="0" y="0" width="52" height="47"><path d="M47.8 4.328C45.077 1.551 41.472.034 37.625.034c-3.848 0-7.463 1.529-10.186 4.305l-1.422 1.45-1.445-1.472C21.85 1.54 18.222 0 14.375 0 10.54 0 6.923 1.529 4.211 4.294 1.488 7.071-.01 10.76.001 14.682c0 3.924 1.51 7.6 4.232 10.376l20.703 21.113c.287.292.673.45 1.047.45.375 0 .761-.147 1.048-.439l20.747-21.079C50.5 22.327 52 18.64 52 14.716c.011-3.924-1.477-7.611-4.2-10.388Z" fill="#000"/><mask id="d" style="mask-type:alpha" maskUnits="userSpaceOnUse" x="0" y="0" width="52" height="47"><path d="M47.8 4.328C45.077 1.551 41.472.034 37.625.034c-3.848 0-7.463 1.529-10.186 4.305l-1.422 1.45-1.445-1.472C21.85 1.54 18.222 0 14.375 0 10.54 0 6.923 1.529 4.211 4.294 1.488 7.071-.01 10.76.001 14.682c0 3.924 1.51 7.6 4.232 10.376l20.703 21.113c.287.292.673.45 1.047.45.375 0 .761-.147 1.048-.439l20.747-21.079C50.5 22.327 52 18.64 52 14.716c.011-3.924-1.477-7.611-4.2-10.388Z" fill="#fff"/></mask><g mask="url(#d)"><ellipse cx="21.389" cy="14.537" rx="47.453" ry="18.836" transform="rotate(-30.91 21.39 14.537)" fill="#fff" fill-opacity=".15"/></g></mask><g filter="url(#f)" mask="url(#e)"><ellipse rx="6.447" ry="2.823" transform="scale(1 -1) rotate(23.563 25.591 24.775)" fill="#fff" fill-opacity=".47"/></g><defs><filter id="c" x="-37.468" y="-31.713" width="117.714" height="92.5" filterUnits="userSpaceOnUse" color-interpolation-filters="sRGB"><feFlood flood-opacity="0" result="BackgroundImageFix"/><feBlend in="SourceGraphic" in2="BackgroundImageFix" result="shape"/><feGaussianBlur stdDeviation="8.5" result="effect1_foregroundBlur_51_107"/></filter><filter id="f" x="-8.98" y="-10.487" width="42.034" height="37.303" filterUnits="userSpaceOnUse" color-interpolation-filters="sRGB"><feFlood flood-opacity="0" result="BackgroundImageFix"/><feBlend in="SourceGraphic" in2="BackgroundImageFix" result="shape"/><feGaussianBlur stdDeviation="7.5" result="effect1_foregroundBlur_51_107"/></filter><linearGradient id="a" x1="26" y1="0" x2="26" y2="46.621" gradientUnits="userSpaceOnUse"><stop stop-color="#0057B7"/><stop offset=".5" stop-color="#0057B7"/><stop offset=".5" stop-color="gold"/><stop offset="1" stop-color="gold"/></linearGradient></defs></svg>