<svg width="52" height="52" fill="none" xmlns="http://www.w3.org/2000/svg"><path d="M47.8 7.328c-2.723-2.777-6.328-4.294-10.175-4.294-3.848 0-7.463 1.529-10.186 4.305l-1.422 1.45-1.445-1.472C21.85 4.54 18.222 3 14.375 3 10.54 3 6.923 4.529 4.211 7.294 1.488 10.071-.01 13.76.001 17.682c0 3.924 1.51 7.6 4.232 10.377L24.936 49.17c.287.292.673.45 1.047.45.375 0 .761-.147 1.048-.439l20.747-21.079C50.5 25.327 52 21.64 52 17.716c.011-3.924-1.477-7.611-4.2-10.388Z" fill="url(#a)"/><mask id="b" style="mask-type:alpha" maskUnits="userSpaceOnUse" x="0" y="3" width="52" height="47"><path d="M47.8 7.328c-2.723-2.777-6.328-4.294-10.175-4.294-3.848 0-7.463 1.529-10.186 4.305l-1.422 1.45-1.445-1.472C21.85 4.54 18.222 3 14.375 3 10.54 3 6.923 4.529 4.211 7.294 1.488 10.071-.01 13.76.001 17.682c0 3.924 1.51 7.6 4.232 10.377L24.936 49.17c.287.292.673.45 1.047.45.375 0 .761-.147 1.048-.439l20.747-21.079C50.5 25.327 52 21.64 52 17.716c.011-3.924-1.477-7.611-4.2-10.388Z" fill="#fff"/></mask><g filter="url(#c)" mask="url(#b)"><ellipse cx="21.389" cy="17.537" rx="47.453" ry="18.836" transform="rotate(-30.91 21.39 17.537)" fill="#fff" fill-opacity=".15"/></g><mask id="e" style="mask-type:alpha" maskUnits="userSpaceOnUse" x="0" y="3" width="52" height="47"><path d="M47.8 7.328c-2.723-2.777-6.328-4.294-10.175-4.294-3.848 0-7.463 1.529-10.186 4.305l-1.422 1.45-1.445-1.472C21.85 4.54 18.222 3 14.375 3 10.54 3 6.923 4.529 4.211 7.294 1.488 10.071-.01 13.76.001 17.682c0 3.924 1.51 7.6 4.232 10.377L24.936 49.17c.287.292.673.45 1.047.45.375 0 .761-.147 1.048-.439l20.747-21.079C50.5 25.327 52 21.64 52 17.716c.011-3.924-1.477-7.611-4.2-10.388Z" fill="#000"/><mask id="d" style="mask-type:alpha" maskUnits="userSpaceOnUse" x="0" y="3" width="52" height="47"><path d="M47.8 7.328c-2.723-2.777-6.328-4.294-10.175-4.294-3.848 0-7.463 1.529-10.186 4.305l-1.422 1.45-1.445-1.472C21.85 4.54 18.222 3 14.375 3 10.54 3 6.923 4.529 4.211 7.294 1.488 10.071-.01 13.76.001 17.682c0 3.924 1.51 7.6 4.232 10.377L24.936 49.17c.287.292.673.45 1.047.45.375 0 .761-.147 1.048-.439l20.747-21.079C50.5 25.327 52 21.64 52 17.716c.011-3.924-1.477-7.611-4.2-10.388Z" fill="#fff"/></mask><g mask="url(#d)"><ellipse cx="21.389" cy="17.537" rx="47.453" ry="18.836" transform="rotate(-30.91 21.39 17.537)" fill="#fff" fill-opacity=".15"/></g></mask><g filter="url(#f)" mask="url(#e)"><ellipse rx="6.447" ry="2.823" transform="scale(1 -1) rotate(23.563 32.783 23.275)" fill="#fff" fill-opacity=".47"/></g><defs><filter id="c" x="-37.468" y="-28.713" width="117.714" height="92.5" filterUnits="userSpaceOnUse" color-interpolation-filters="sRGB"><feFlood flood-opacity="0" result="BackgroundImageFix"/><feBlend in="SourceGraphic" in2="BackgroundImageFix" result="shape"/><feGaussianBlur stdDeviation="8.5" result="effect1_foregroundBlur_66_200"/></filter><filter id="f" x="-8.98" y="-7.487" width="42.034" height="37.303" filterUnits="userSpaceOnUse" color-interpolation-filters="sRGB"><feFlood flood-opacity="0" result="BackgroundImageFix"/><feBlend in="SourceGraphic" in2="BackgroundImageFix" result="shape"/><feGaussianBlur stdDeviation="7.5" result="effect1_foregroundBlur_66_200"/></filter><linearGradient id="a" x1="26" y1="3" x2="26" y2="49.621" gradientUnits="userSpaceOnUse"><stop stop-color="#0057B7"/><stop offset=".5" stop-color="#0057B7"/><stop offset=".5" stop-color="gold"/><stop offset="1" stop-color="gold"/></linearGradient></defs></svg>