<svg width="44" height="44" fill="none" xmlns="http://www.w3.org/2000/svg"><rect x=".5" y=".5" width="43" height="43" rx="21.5" fill="#fff" stroke="#0057B7"/><path d="M12.486 9.66H31.52v20.094a3.638 3.638 0 0 1-2.18 3.326l-7.337 3.093-7.338-3.239a3.638 3.638 0 0 1-2.179-3.325V9.659Z" fill="#005BBB"/><path d="m22.003 36.254-7.373-3.25a3.718 3.718 0 0 1-2.22-3.395V9.588h19.18v20.17a3.718 3.718 0 0 1-2.22 3.397l-7.367 3.098Zm-9.44-26.519v19.873c0 1.41.837 2.691 2.131 3.262l7.309 3.227 7.309-3.081a3.57 3.57 0 0 0 2.131-3.262V9.735h-18.88Z" fill="#FFD500"/><path d="M29.03 12.718a7.288 7.288 0 0 0-3.771 5.557l-.586 4.962h.006c.633-.14 1.26.25 1.4.88a1.162 1.162 0 0 1-.884 1.392l-.615.14c-.07-.14-.14-.28-.223-.42a12.033 12.033 0 0 1-1.645-6.523l.187-5.272a3.492 3.492 0 0 0-.89-2.452 3.511 3.511 0 0 0-.89 2.452l.187 5.272a12.085 12.085 0 0 1-1.646 6.523c-.082.14-.152.28-.222.42l-.615-.14a1.163 1.163 0 0 1-.884-1.392 1.17 1.17 0 0 1 1.4-.88h.005l-.585-4.962a7.33 7.33 0 0 0-3.784-5.557v16.891h3.912a6.39 6.39 0 0 0 2.314 3.844c.328.204.603.484.796.816.193-.332.469-.617.797-.816a6.39 6.39 0 0 0 2.313-3.844h3.924V12.718Zm-3.068 9.558.462-3.873a6.14 6.14 0 0 1 1.441-3.268v8.65h-.662a2.342 2.342 0 0 0-1.241-1.509Zm-1.91 6.168H22.59c0-.681.474-1.27 1.142-1.42l.117-.024c.134.472.205.96.205 1.444ZM20.159 27l.117.023a1.46 1.46 0 0 1 1.142 1.421h-1.464c0-.483.07-.972.205-1.444Zm1.845-4.351a13.3 13.3 0 0 0 1.335 3.163l.053.099a2.64 2.64 0 0 0-1.388.89 2.64 2.64 0 0 0-1.388-.89l.053-.1c.58-.995 1.03-2.055 1.335-3.162Zm-4.416-4.246.463 3.873a2.342 2.342 0 0 0-1.242 1.509h-.661v-8.65a6.14 6.14 0 0 1 1.44 3.268Zm-1.44 6.547h.661a2.343 2.343 0 0 0 1.757 1.695l.451.099a6.24 6.24 0 0 0-.234 1.7h-2.635V24.95Zm3.94 4.66h1.33v2.457a5.158 5.158 0 0 1-1.33-2.458Zm2.502 2.457V29.61h1.329a5.157 5.157 0 0 1-1.33 2.458Zm2.635-3.623c0-.57-.076-1.141-.234-1.7l.45-.1a2.368 2.368 0 0 0 1.593-1.252c.07-.145.123-.291.165-.442h.661v3.494h-2.635Z" fill="#FFD500"/></svg>